<svg width="149" height="78" viewBox="0 0 149 78" fill="none" xmlns="http://www.w3.org/2000/svg">
<path d="M18.6548 72.5351C19.5424 72.6469 20.4375 72.4686 21.2565 72.017C22.0755 71.5653 22.7914 70.855 23.3372 69.9527C24.1547 67.6636 24.5174 65.1515 24.3931 62.6398V59.2984L24.4789 47.0403L9.79379 17.4833C7.71377 13.8151 6.16571 9.69871 5.22336 5.33019L0 5.545V0.814534H21.7739V4.36118C17.3863 4.36118 15.1925 5.93801 15.1925 9.09165C15.3809 11.6281 16.1115 14.0491 17.3042 16.0895L19.9159 21.3402C23.5151 28.7963 26.6366 34.8538 29.2806 39.5126H29.4485C31.416 34.5674 34.4257 27.2481 38.4775 17.5549L40.2497 13.3591C41.3562 10.4501 42.714 7.70893 44.2978 5.18699L37.6343 5.51158V0.814534H54.8452V4.36118C52.3901 4.47642 50.0453 5.69501 48.2228 7.80282C45.8863 10.8761 43.9367 14.3946 42.4435 18.2327L31.814 43.823C31.7568 47.3235 31.7145 51.0516 31.6871 55.0071C31.6598 58.9627 31.6685 61.7233 31.7132 63.289C31.7452 66.125 31.6605 68.9611 31.4595 71.7857L38.4626 71.3561V76.0866H18.6548V72.5351ZM76.6155 77.7859C75.9608 77.793 75.3128 77.6188 74.7158 77.2752C74.1188 76.9316 73.587 76.4268 73.1569 75.7954C72.1997 74.4652 71.6858 72.7099 71.7242 70.9026C71.6979 69.0681 72.2335 67.2933 73.2165 65.9574C73.6507 65.3148 74.1881 64.7997 74.7921 64.4471C75.396 64.0945 76.0523 63.9128 76.7162 63.9143C77.3819 63.898 78.0419 64.0731 78.6476 64.4267C79.2533 64.7803 79.7892 65.3034 80.2158 65.9574C81.1455 67.326 81.6419 69.0898 81.6075 70.9026C81.6232 71.8038 81.4994 72.7 81.2433 73.5397C80.9871 74.3794 80.6037 75.146 80.1151 75.7954C79.6759 76.429 79.1364 76.9359 78.5324 77.2824C77.9284 77.6289 77.2737 77.807 76.6117 77.805L76.6155 77.7859ZM114.496 72.5351C115.384 72.6469 116.279 72.4686 117.098 72.017C117.917 71.5653 118.633 70.855 119.178 69.9527C119.996 67.6636 120.359 65.1515 120.234 62.6398V59.2984L120.32 4.78125L111.631 4.89103C110.189 4.7248 108.74 5.05028 107.429 5.83429C106.118 6.61831 104.993 7.83284 104.169 9.35418C102.432 13.7192 101.658 18.6074 101.93 23.493H98.8073L99.3147 0.804993H148.493L149 23.493H145.795C145.829 19.846 145.474 16.2102 144.739 12.686C144.229 10.2471 143.064 8.11598 141.449 6.66674C139.44 5.19016 137.138 4.49819 134.826 4.67623H127.651L127.566 63.2795C127.598 66.1154 127.513 68.9516 127.312 71.7762L134.315 71.3465V76.077H114.492L114.496 72.5351Z" fill="black"/>
</svg>
